<?xml version="1.0" encoding="utf-8"?>
<!-- Generator: Adobe Illustrator 26.3.1, SVG Export Plug-In . SVG Version: 6.00 Build 0)  -->
<svg version="1.1" id="レイヤー_1" xmlns="http://www.w3.org/2000/svg" xmlns:xlink="http://www.w3.org/1999/xlink" x="0px"
	 y="0px" viewBox="0 0 595.28 841.89" style="enable-background:new 0 0 595.28 841.89;" xml:space="preserve">
<style type="text/css">
	.st0{fill:#FFFFFF;}
</style>
<g id="QOCkFa.tif">
	<g>
		<path class="st0" d="M540.2,317.03c-170.33,0-340.67,0-511,0c0-43.67,0-87.33,0-131c170.33,0,340.67,0,511,0
			C540.2,229.7,540.2,273.37,540.2,317.03z M315,283.09c0.65,1.04,1.38,2.03,1.94,3.12c1.62,3.15,2.78,6.61,4.85,9.43
			c2.6,3.56,5.73,6.8,8.99,9.78c1.89,1.73,4.17,1.31,5.42-0.17c-4.92-2.73-7.72-7.28-9.84-12.16c-5.6-12.91-10.9-25.95-16.41-38.9
			c-1.31-3.07-2.97-6-4.72-9.48c10.48-13.36,23.01-25.88,36.63-37.35c-0.12-0.17-0.24-0.34-0.36-0.51c-1.7,1.04-3.39,2.08-5.09,3.12
			c-0.05-0.09-0.1-0.18-0.15-0.28c0.62-0.76,1.23-1.53,2.2-2.72c-4.1,1.2-6.24,3.02-7.6,5.95c-0.18,0.39-0.71,0.61-1.08,0.91
			c-1.06-1.46-1.54,0.01-2.06,0.49c-3.72,3.48-7.45,6.93-11.44,10.12c-2.06,1.65-3.75,3.76-5.58,5.69
			c-3.84,4.07-7.65,8.16-11.47,12.24c0.07-1.08,0.4-1.99,0.84-2.84c3.31-6.3,6.69-12.58,9.96-18.9c0.9-1.75,1.62-3.63,2.21-5.51
			c0.74-2.32,0.26-4.39-2.26-5.29c-2.22-0.79-4.53-1.68-6.85-1.82c-9.39-0.56-22.54,7.95-25.24,18.94c-0.81,3.29-0.09,6.21,1.62,9
			c1.15,1.88,2.56,2.36,4.39,0.87c-2.95-4.35,0.16-12.92,4.27-17.08c5.61-5.68,12.41-9.48,15.53-8.2c-0.4,0.63-0.86,1.22-1.17,1.88
			c-5.7,12.4-11.61,24.71-16.97,37.26c-2.49,5.82-3.8,12.12-5.85,18.13c-0.99,2.9,0.67,4,2.8,4.29c1.39,0.19,3.57-0.35,4.3-1.35
			c2.14-2.9,3.64-6.26,5.55-9.35c2.2-3.55,4.58-7,7.23-11.04c1.37,7.26,14.15,34.08,17.29,36.53c-0.78-1.7-1.45-3.16-2.12-4.63
			C314.87,283.2,314.94,283.15,315,283.09z M328.78,236.64c-3.09,8.1-6.04,15.56-8.77,23.09c-0.93,2.56-0.7,5.26,0.85,7.67
			c1.7,2.64,3.18,5.9,6.87,5.74c3.73-0.17,5.51-3.18,7.12-6.22c2.69-5.08,5.55-10.06,8.35-15.09c0.03,1.53-0.35,2.86-0.79,4.17
			c-1.77,5.27-2.38,10.28,2.11,14.76c1.73,1.72,3.37,2.58,5.15,1.96c1.12,2.06,1.75,4.36,3.23,5.73c3.27,3.03,9.99,3.24,14.04,0.4
			c3.31-2.31,5.63-5.8,4.47-10.99c-0.45-2-0.93-4-1.42-6.13c1.15-0.83,2.33-1.69,3.13-2.27c0.52,2.64,0.62,5.41,1.65,7.77
			c1.28,2.92,3.15,6.12,6.95,5.9c3.71-0.21,5.45-3.26,7.05-6.31c2.63-5,5.47-9.89,8.22-14.82c0.03,1.62-0.38,3.04-0.84,4.44
			c-1.61,4.94-2.18,9.67,1.92,13.89c3.3,3.4,6.09,3.3,8.93-0.58c1.11-1.53,2.23-3.05,3.48-4.77c1.67,3,2.9,6,5.97,7.5
			c0.65-2.44,1.16-4.61,1.81-6.73c2.92-9.51,7.81-17.9,14.84-24.97c1.07-1.08,2.66-1.64,4.01-2.44c0.15,0.19,0.29,0.38,0.44,0.57
			c-0.2,0.51-0.4,1.01-0.61,1.52c-2.3,5.77-4.74,11.49-6.84,17.34c-1.65,4.58-1.17,8.93,2.44,12.68c3.17,3.3,5.2,3.4,8.1-0.15
			c2.59-3.17,5-6.49,7.61-9.9c0.38,1.22,0.74,2.32,1.05,3.43c1.92,6.94,11.95,9.74,16.47,3.63c0.98-1.33,1.85-2.76,2.94-3.99
			c0.51-0.57,1.49-1.17,2.16-1.08c4.02,0.56,6.91-1.18,9.34-4.1c0.51-0.61,1.05-1.19,1.54-1.74c1.01,1.7,1.88,3.17,2.84,4.81
			c-1.67,0.8-3.3,1.58-4.93,2.37c-3.31,1.61-6.07,3.75-7.4,7.35c-1.11,3.01-0.44,5.87,2.03,7.56c4.54,3.11,9.45,2.95,13.89,0.27
			c3.8-2.29,5.52-6.13,4.61-10.75c-0.41-2.1-0.94-4.17-1.44-6.38c1.83-1.37,3.71-2.77,5.46-4.09c0.84,2.74,1.4,5.34,2.44,7.75
			c2.01,4.68,9.06,6.8,13.41,4.21c6.46-3.84,9.81-10.2,13.23-16.47c0.39-0.71,0.22-1.71,0.31-2.58c-0.2-0.14-0.41-0.28-0.61-0.43
			c-0.65,0.8-1.34,1.58-1.95,2.42c-2.06,2.81-3.9,5.82-6.21,8.41c-2.23,2.49-4.7,4.96-7.53,6.7c-2.88,1.77-5.65,0.18-6.15-3.14
			c-0.3-2-0.1-4.09,0.04-6.13c0.1-1.43,0.8-2.12,2.5-2.36c6.35-0.88,11.41-5.82,12.46-11.62c0.45-2.46-0.47-4.24-2.41-5.54
			c-4.28-2.86-9.92-1.91-12.8,2.35c-1.84,2.73-3.25,5.75-4.9,8.62c-2.11,3.69-4.72,6.9-8.7,8.74c-4.07-6.65-3.73-10.6,1.72-16.02
			c1.69-1.68,1.57-2.87,0.01-4.31c-0.73-0.68-1.51-1.3-2.22-2c-1.11-1.09-2.2-0.88-3.34-0.05c-4.56,3.3-7.19,10.84-5.73,16.43
			c0.12,0.45,0.29,1,0.15,1.4c-0.85,2.46-6.37,5.7-9.11,5.42c0.36-2.26,0.96-4.52,1-6.79c0.05-2.38-0.34-4.79-0.7-7.16
			c-0.29-1.91-0.84-3.76-3.14-4.29c-0.27-0.06-0.57-0.28-0.74-0.51c-2.73-3.79-7.67-4.91-11.02-1.74c-2.75,2.61-5.17,5.92-6.71,9.38
			c-3.1,6.96-7.39,13.12-11.68,19.32c-0.7,1.02-1.75,1.81-3,3.07c0-0.91-0.07-1.18,0.01-1.39c2.83-8.12,5.63-16.24,8.55-24.33
			c0.53-1.46,1.17-2.69,0.06-4.16c-2.4-3.19-6.1-4.44-9.99-3.62c-3.15,0.67-4.92,2.93-6.8,5.12c-0.9,1.05-1.73,2.14-2.6,3.22
			c1.09-4.85-0.53-7.61-5.63-9.03c-5.47,11.34-7.45,24.62-18.07,34.07c0.23-1.74,0.18-2.92,0.56-3.95
			c2.63-7.23,5.28-14.45,8.08-21.62c1.22-3.11,0.77-4.19-2.87-6.87c-2.45-1.81-3.12,0.14-4.09,1.54c-4.43,6.4-8.9,12.77-13.19,19.26
			c-2.05,3.11-3.61,6.53-5.6,9.69c-0.89,1.42-2.14,2.87-4.36,1.7c0.32-1.51,0.46-3.02,0.96-4.41c2.57-7.08,5.28-14.1,7.81-21.19
			c0.4-1.11,0.61-2.88,0.01-3.63c-1.31-1.65-3.2-2.84-5.22-4.52c-2.06,4.71-3.74,8.75-5.58,12.73c-1.88,4.07-4.81,7.21-8.85,9.28
			c-4.13-6.5-3.78-10.62,1.66-16.03c1.67-1.66,1.64-2.85,0.07-4.31c-0.73-0.68-1.52-1.29-2.22-2c-1.22-1.22-2.44-0.93-3.52,0.07
			c-4.68,4.34-6.86,9.57-5.68,16.01c0.13,0.71,0.04,1.64-0.33,2.24c-2.36,3.9-4.76,7.8-7.3,11.59c-1.03,1.53-2.45,2.79-3.7,4.17
			c-0.27-1.68-0.17-3.09,0.29-4.37c2.58-7.07,5.31-14.09,7.84-21.19c0.42-1.18,0.6-3.05-0.05-3.88c-1.25-1.6-3.16-2.69-4.9-4.07
			c-0.85,1.2-1.31,1.99-1.89,2.67c-5.54,6.45-10.43,13.32-14.18,20.98c-1.38,2.82-3.01,5.54-4.75,8.17
			c-0.91,1.37-2.11,2.88-4.32,1.67c0.23-1.21,0.31-2.4,0.7-3.48c2.6-7.24,5.12-14.51,7.99-21.65c0.98-2.44,0.75-4.14-1.19-5.67
			C332.02,238.66,330.73,237.93,328.78,236.64z M157.68,261.33c-1.91,0.93-3.68,1.79-5.45,2.67c-3.15,1.57-5.69,3.74-6.89,7.17
			c-1.2,3.42-0.14,6.17,2.96,8.06c2.57,1.56,5.37,1.71,8.2,1.38c6.49-0.76,10.92-6.77,9.25-13.05c-0.38-1.44-0.77-2.88-1.05-4.34
			c-0.11-0.58-0.16-1.48,0.17-1.76c1.4-1.2,2.96-2.22,4.76-3.53c0.14,5.83,0.15,11.35,6.11,14.43c0.25-1.31,0.24-2.36,0.65-3.2
			c2.6-5.37,5.1-10.8,8-16.01c2.66-4.77,5.76-9.31,10.25-12.64c0.83-0.62,1.9-0.93,3.15-1.52c-2.41,6.12-4.62,11.64-6.76,17.2
			c-2.12,5.51-2.03,10.64,2.59,15.07c2.04,1.96,4.23,2.18,6.34,0.22c0.91-0.85,1.75-1.78,2.49-2.77c2.18-2.94,4.3-5.94,6.45-8.93
			c0.7,1.94,1.19,3.99,2.14,5.8c3.62,6.97,12.54,6.98,17.13-0.07c1.5-2.3,2.94-3.39,5.88-3.23c4.71,0.25,9.98-5.65,9.68-10.44
			c-3.44,3.26-5.94,7.79-11.47,7.9c0.43-2.38,1.38-4.64,1.08-6.73c-0.59-4.23,1.49-9.66-4.48-11.93c-0.04-0.02-0.02-0.17-0.07-0.23
			c-2.47-3.72-7.44-5.02-10.69-2.1c-2.69,2.43-4.71,5.68-6.69,8.78c-4.12,6.41-7.98,12.99-12.04,19.43
			c-0.79,1.26-2.01,2.25-3.04,3.36c-0.34-1.39-0.32-2.5,0.04-3.48c2.6-7.24,5.15-14.5,7.99-21.65c0.96-2.41,0.73-4.02-1.23-5.66
			c-4.04-3.36-8.44-3.56-12.26,0.32c-3.29,3.34-6.02,7.25-8.85,11.02c-1.24,1.65-2.1,3.58-3.14,5.39c-0.26-0.12-0.51-0.24-0.77-0.36
			c2.95-6.81,5.71-13.71,8.91-20.4c3.21-6.7,6.86-13.19,10.41-19.94c-1.29-0.91-2.56-2-4-2.76c-3.71-1.96-5.03-1.66-6.87,2.04
			c-2.71,5.46-5.26,11-7.67,16.6c-2.42,5.61-4.78,11.27-6.81,17.02c-1.68,4.73-4.88,7.82-9.04,10.26
			c-4.13-6.56-3.77-10.71,1.64-16.1c1.67-1.67,1.64-2.86,0.03-4.31c-0.8-0.72-1.52-1.63-2.45-2.08c-0.75-0.36-1.98-0.52-2.64-0.15
			c-4.45,2.48-7.71,11.24-6.36,16.19c0.25,0.9-0.06,2.28-0.64,3c-1.03,1.26-2.37,2.37-3.79,3.19c-1.3,0.75-2.87,1.04-4.21,1.49
			c0.35-3.4,0.9-6.27,0.86-9.13c-0.03-2.37-0.27-4.95-1.27-7.02c-0.95-1.97-2.89-3.56-4.6-5.06c-2.26-1.99-7.24-1.92-9.79,0.25
			c-1.67,1.42-3.12,3.2-4.32,5.05c-3.99,6.17-5.65,12.6-3.13,20.02c2.14,6.29,11.76,9.7,16.41,3.47c0.89-1.19,1.79-2.39,2.61-3.63
			c0.73-1.12,1.5-1.79,3.03-1.53c3.22,0.53,5.85-0.69,7.97-3.12c0.78-0.9,1.64-1.73,2.44-2.57
			C155.8,258.2,156.65,259.61,157.68,261.33z M80.83,240.41c2.23-4.26,4.43-8.32,6.5-12.44c2.08-4.14,4.19-8.27,5.97-12.53
			c1.17-2.8,0.61-4.26-2.11-5.49c-2.28-1.03-4.86-1.88-7.33-1.92c-9.49-0.18-21.91,7.9-24.83,18.9c-0.88,3.33-0.13,6.36,1.72,9.21
			c1.2,1.85,2.59,2.01,4.46,0.75c-2.16-3.23-2.21-6.57-1.01-10.16c1.82-5.43,6.44-8.7,9.74-12.97c0.62-0.8,2.55-0.5,3.32-1.27
			c2.2-2.17,4.77-2,7.64-1.86c-0.28,0.74-0.47,1.37-0.74,1.95c-4.47,9.43-9,18.84-13.38,28.31c-0.68,1.47-1.52,2.16-3.02,2.51
			c-4.96,1.16-9.68,2.9-13.58,6.36c1.07,4.12,2.03,4.58,5.82,2.93c2.06-0.9,4.17-1.67,6.26-2.5c0.18,0.21,0.36,0.42,0.53,0.63
			c-1.19,3.41-2.44,6.81-3.56,10.25c-0.92,2.83-1.75,5.7-2.52,8.58c-0.4,1.47,0.14,2.46,1.66,3.12c3.44,1.48,5.55,0.43,6.83-3.24
			c2.44-6.94,5.07-13.81,7.58-20.73c0.47-1.29,1.13-1.99,2.64-2.13c5.29-0.49,10.55-1.17,15.83-1.73c1.03-0.11,2.08-0.02,3.34-0.02
			c-0.19,0.73-0.29,1.2-0.43,1.64C95,256.3,91.71,266,88.67,275.77c-1.55,4.98-1.35,5.04,2.67,7.66c3.99-0.45,4.7-3.45,5.59-6.42
			c1.09-3.65,2.57-7.19,3.49-10.87c1.17-4.65,4.8-8.61,2.87-14.19c-1.31-3.78,1.54-7.18,3.59-10.39c-0.69,2.7-1.51,5.37-2.45,7.99
			c-0.47,1.31-0.35,2.06,1.29,2.07c0.21-0.41,0.48-0.75,0.56-1.14c1.04-4.75,3.56-7.17,8.83-6.36c1.39,0.21,3.02-1.1,4.54-1.71
			c-0.1-0.27-0.19-0.53-0.29-0.8c-2.72-0.52-5.43-1.04-8.37-1.6c0.45-0.98,0.79-1.72,1.13-2.45c3.16-6.74,6.41-13.43,9.46-20.22
			c2.32-5.17,1.05-5.93-3.51-9.31c-1.73-1.28-3.07-0.61-3.9,1.33c-4.11,9.58-8.25,19.16-12.5,28.68c-0.32,0.72-1.59,1.37-2.46,1.43
			C93.25,239.88,87.28,240.11,80.83,240.41z"/>
		<path d="M328.78,236.64c1.96,1.29,3.24,2.02,4.39,2.92c1.94,1.53,2.17,3.24,1.19,5.67c-2.86,7.14-5.39,14.41-7.99,21.65
			c-0.39,1.08-0.46,2.26-0.7,3.48c2.21,1.22,3.41-0.3,4.32-1.67c1.73-2.62,3.37-5.34,4.75-8.17c3.75-7.66,8.64-14.53,14.18-20.98
			c0.58-0.68,1.04-1.46,1.89-2.67c1.74,1.38,3.65,2.46,4.9,4.07c0.65,0.83,0.47,2.7,0.05,3.88c-2.52,7.09-5.25,14.11-7.84,21.19
			c-0.47,1.28-0.56,2.69-0.29,4.37c1.24-1.38,2.67-2.64,3.7-4.17c2.54-3.79,4.94-7.68,7.3-11.59c0.36-0.6,0.46-1.53,0.33-2.24
			c-1.18-6.44,1-11.67,5.68-16.01c1.08-1,2.3-1.29,3.52-0.07c0.7,0.7,1.49,1.32,2.22,2c1.57,1.46,1.6,2.65-0.07,4.31
			c-5.43,5.41-5.78,9.53-1.66,16.03c4.04-2.07,6.96-5.21,8.85-9.28c1.84-3.97,3.52-8.02,5.58-12.73c2.02,1.68,3.91,2.87,5.22,4.52
			c0.6,0.75,0.39,2.52-0.01,3.63c-2.53,7.09-5.24,14.12-7.81,21.19c-0.5,1.38-0.64,2.9-0.96,4.41c2.22,1.18,3.47-0.28,4.36-1.7
			c1.98-3.15,3.55-6.58,5.6-9.69c4.28-6.49,8.76-12.86,13.19-19.26c0.97-1.41,1.64-3.35,4.09-1.54c3.64,2.69,4.09,3.76,2.87,6.87
			c-2.8,7.16-5.44,14.39-8.08,21.62c-0.37,1.03-0.33,2.21-0.56,3.95c10.62-9.44,12.6-22.73,18.07-34.07
			c5.1,1.42,6.71,4.18,5.63,9.03c0.86-1.07,1.7-2.17,2.6-3.22c1.89-2.2,3.66-4.46,6.8-5.12c3.89-0.83,7.59,0.43,9.99,3.62
			c1.11,1.47,0.47,2.7-0.06,4.16c-2.92,8.08-5.72,16.21-8.55,24.33c-0.07,0.21-0.01,0.48-0.01,1.39c1.25-1.26,2.29-2.05,3-3.07
			c4.29-6.2,8.57-12.36,11.68-19.32c1.54-3.46,3.96-6.77,6.71-9.38c3.35-3.18,8.29-2.05,11.02,1.74c0.17,0.23,0.46,0.45,0.74,0.51
			c2.3,0.53,2.85,2.37,3.14,4.29c0.36,2.37,0.75,4.78,0.7,7.16c-0.05,2.27-0.65,4.53-1,6.79c2.74,0.28,8.26-2.96,9.11-5.42
			c0.14-0.4-0.03-0.94-0.15-1.4c-1.45-5.59,1.17-13.12,5.73-16.43c1.14-0.82,2.22-1.04,3.34,0.05c0.71,0.7,1.49,1.32,2.22,2
			c1.55,1.44,1.68,2.63-0.01,4.31c-5.46,5.42-5.8,9.36-1.72,16.02c3.98-1.85,6.59-5.05,8.7-8.74c1.64-2.87,3.05-5.89,4.9-8.62
			c2.88-4.26,8.52-5.22,12.8-2.35c1.94,1.3,2.86,3.07,2.41,5.54c-1.06,5.8-6.11,10.74-12.46,11.62c-1.7,0.24-2.4,0.92-2.5,2.36
			c-0.14,2.04-0.34,4.13-0.04,6.13c0.5,3.32,3.27,4.92,6.15,3.14c2.82-1.74,5.29-4.2,7.53-6.7c2.31-2.58,4.15-5.6,6.21-8.41
			c0.61-0.83,1.3-1.61,1.95-2.42c0.2,0.14,0.41,0.28,0.61,0.43c-0.09,0.87,0.07,1.87-0.31,2.58c-3.42,6.27-6.76,12.63-13.23,16.47
			c-4.35,2.59-11.4,0.47-13.41-4.21c-1.03-2.41-1.6-5.01-2.44-7.75c-1.75,1.31-3.63,2.71-5.46,4.09c0.5,2.21,1.03,4.29,1.44,6.38
			c0.91,4.61-0.82,8.46-4.61,10.75c-4.44,2.68-9.35,2.84-13.89-0.27c-2.47-1.69-3.14-4.55-2.03-7.56c1.33-3.59,4.09-5.74,7.4-7.35
			c1.62-0.79,3.25-1.56,4.93-2.37c-0.97-1.63-1.84-3.11-2.84-4.81c-0.49,0.55-1.03,1.13-1.54,1.74c-2.43,2.92-5.33,4.66-9.34,4.1
			c-0.67-0.09-1.65,0.51-2.16,1.08c-1.09,1.23-1.96,2.66-2.94,3.99c-4.52,6.11-14.54,3.31-16.47-3.63c-0.31-1.11-0.68-2.2-1.05-3.43
			c-2.61,3.41-5.02,6.72-7.61,9.9c-2.9,3.55-4.93,3.45-8.1,0.15c-3.61-3.75-4.09-8.09-2.44-12.68c2.1-5.84,4.54-11.56,6.84-17.34
			c0.2-0.51,0.4-1.01,0.61-1.52c-0.15-0.19-0.29-0.38-0.44-0.57c-1.35,0.8-2.94,1.36-4.01,2.44c-7.03,7.07-11.92,15.46-14.84,24.97
			c-0.65,2.12-1.16,4.29-1.81,6.73c-3.07-1.5-4.3-4.5-5.97-7.5c-1.25,1.72-2.37,3.24-3.48,4.77c-2.84,3.89-5.63,3.98-8.93,0.58
			c-4.1-4.22-3.52-8.95-1.92-13.89c0.46-1.4,0.87-2.82,0.84-4.44c-2.75,4.94-5.59,9.82-8.22,14.82c-1.6,3.05-3.35,6.1-7.05,6.31
			c-3.8,0.22-5.67-2.97-6.95-5.9c-1.03-2.36-1.13-5.13-1.65-7.77c-0.8,0.58-1.98,1.44-3.13,2.27c0.5,2.13,0.98,4.13,1.42,6.13
			c1.16,5.2-1.16,8.68-4.47,10.99c-4.05,2.84-10.77,2.63-14.04-0.4c-1.48-1.37-2.11-3.67-3.23-5.73c-1.78,0.62-3.42-0.24-5.15-1.96
			c-4.49-4.48-3.89-9.49-2.11-14.76c0.44-1.31,0.83-2.64,0.79-4.17c-2.79,5.02-5.66,10.01-8.35,15.09
			c-1.61,3.04-3.39,6.05-7.12,6.22c-3.69,0.16-5.17-3.1-6.87-5.74c-1.55-2.41-1.78-5.1-0.85-7.67
			C322.74,252.2,325.68,244.74,328.78,236.64z M463.56,241.8c-0.87,0.91-1.87,1.72-2.57,2.75c-3.17,4.62-5.42,9.68-6.55,15.16
			c-0.36,1.73-0.26,3.65,0.07,5.4c0.51,2.68,2.28,3.66,4.52,2.09c2.2-1.55,3.86-3.92,5.57-6.07c0.36-0.45,0.2-1.72-0.19-2.29
			C460.61,253.37,460.36,247.68,463.56,241.8z M485.94,264.36c-4.34,1.89-8.31,4.02-11.23,7.73c-1.21,1.54-1.11,3,0.13,4.5
			c3.18,3.86,8.5,3.37,10.99-1.09C487.85,271.89,487.58,268.23,485.94,264.36z M364.62,264.29c-4.29,1.96-8.14,4.01-11.03,7.48
			c-1.54,1.85-1.36,3.54,0.3,5.26c3.43,3.54,8.63,2.64,10.87-1.98C366.47,271.55,366.16,268.03,364.62,264.29z M504.89,253.31
			c0.27,0.17,0.54,0.34,0.8,0.52c5.78-1.92,10.36-7.26,10.47-12.94c-1.51,0.63-3.23,0.79-3.94,1.73
			C509.6,246.05,507.31,249.73,504.89,253.31z M466.77,256.7c1.98-3.95,2.39-10.01,1-13.27
			C463.63,245.06,462.98,252.48,466.77,256.7z M360.9,257.77c-1.13,2.13-2.08,3.92-3.32,6.27c2.3-1.07,3.98-1.86,5.81-2.72
			C362.57,260.14,361.87,259.15,360.9,257.77z"/>
		<path d="M157.68,261.33c-1.03-1.72-1.88-3.12-2.83-4.71c-0.8,0.84-1.66,1.68-2.44,2.57c-2.12,2.43-4.76,3.65-7.97,3.12
			c-1.54-0.25-2.3,0.41-3.03,1.53c-0.82,1.24-1.72,2.44-2.61,3.63c-4.65,6.23-14.27,2.82-16.41-3.47
			c-2.53-7.42-0.87-13.84,3.13-20.02c1.2-1.85,2.65-3.63,4.32-5.05c2.55-2.17,7.52-2.24,9.79-0.25c1.72,1.51,3.65,3.09,4.6,5.06
			c1,2.08,1.24,4.66,1.27,7.02c0.03,2.86-0.51,5.73-0.86,9.13c1.34-0.45,2.91-0.74,4.21-1.49c1.42-0.82,2.76-1.93,3.79-3.19
			c0.59-0.72,0.89-2.1,0.64-3c-1.35-4.96,1.91-13.71,6.36-16.19c0.67-0.37,1.89-0.21,2.64,0.15c0.94,0.45,1.65,1.36,2.45,2.08
			c1.61,1.44,1.65,2.64-0.03,4.31c-5.41,5.39-5.77,9.54-1.64,16.1c4.16-2.43,7.36-5.52,9.04-10.26c2.04-5.76,4.39-11.41,6.81-17.02
			c2.41-5.6,4.96-11.14,7.67-16.6c1.84-3.7,3.16-4,6.87-2.04c1.44,0.76,2.7,1.86,4,2.76c-3.55,6.75-7.2,13.24-10.41,19.94
			c-3.2,6.69-5.96,13.59-8.91,20.4c0.26,0.12,0.51,0.24,0.77,0.36c1.03-1.8,1.9-3.73,3.14-5.39c2.83-3.77,5.56-7.67,8.85-11.02
			c3.82-3.88,8.22-3.68,12.26-0.32c1.96,1.64,2.19,3.25,1.23,5.66c-2.84,7.15-5.39,14.41-7.99,21.65c-0.35,0.98-0.37,2.09-0.04,3.48
			c1.02-1.11,2.24-2.1,3.04-3.36c4.06-6.45,7.92-13.02,12.04-19.43c1.99-3.1,4-6.35,6.69-8.78c3.24-2.92,8.22-1.62,10.69,2.1
			c0.04,0.07,0.02,0.22,0.07,0.23c5.97,2.27,3.89,7.69,4.48,11.93c0.29,2.09-0.66,4.35-1.08,6.73c5.54-0.11,8.03-4.64,11.47-7.9
			c0.3,4.79-4.98,10.69-9.68,10.44c-2.94-0.16-4.39,0.93-5.88,3.23c-4.59,7.05-13.51,7.04-17.13,0.07c-0.94-1.82-1.44-3.87-2.14-5.8
			c-2.15,2.99-4.27,5.98-6.45,8.93c-0.74,0.99-1.58,1.93-2.49,2.77c-2.11,1.97-4.29,1.74-6.34-0.22c-4.62-4.43-4.71-9.56-2.59-15.07
			c2.14-5.56,4.35-11.09,6.76-17.2c-1.26,0.59-2.32,0.9-3.15,1.52c-4.49,3.34-7.59,7.87-10.25,12.64c-2.9,5.21-5.4,10.64-8,16.01
			c-0.41,0.85-0.4,1.9-0.65,3.2c-5.96-3.08-5.96-8.6-6.11-14.43c-1.81,1.31-3.36,2.33-4.76,3.53c-0.33,0.28-0.28,1.19-0.17,1.76
			c0.28,1.46,0.67,2.9,1.05,4.34c1.67,6.29-2.76,12.29-9.25,13.05c-2.83,0.33-5.63,0.19-8.2-1.38c-3.11-1.89-4.16-4.64-2.96-8.06
			c1.2-3.43,3.74-5.6,6.89-7.17C153.99,263.12,155.77,262.26,157.68,261.33z M224.1,242.27c-0.46,0.41-1.01,0.75-1.37,1.23
			c-3.9,5.18-6.41,11-7.58,17.34c-0.26,1.4-0.02,2.99,0.34,4.4c0.66,2.59,2.18,3.46,4.4,1.99c2.11-1.4,3.67-3.64,5.41-5.56
			c0.99-1.09,0.63-2-0.15-3.25C221.99,253.35,220.94,248.06,224.1,242.27z M136.12,242.2c-0.59,0.65-1.26,1.24-1.76,1.94
			c-3.49,4.93-5.86,10.37-7.01,16.28c-0.3,1.56-0.09,3.32,0.28,4.89c0.57,2.45,1.89,2.99,4.29,2.09c3.24-1.22,4.62-4.13,6.1-6.88
			c0.2-0.37-0.21-1.21-0.53-1.71C134.12,253.57,133.11,248.21,136.12,242.2z M158.91,263.76c-3.54,2.46-7.01,4.41-9.91,6.99
			c-3.38,3-2.33,6.56,2,8.09c2.8,1,5.8-0.07,7.55-2.77C160.98,272.32,160.6,268.44,158.91,263.76z M140.85,243.38
			c-4.17,1.72-4.74,9.58-0.97,13.29C141.82,252.86,142.3,246.26,140.85,243.38z M229.01,243.29c-4.44,1.72-5.06,9.55-1.08,13.54
			C229.5,252.31,230.07,247.92,229.01,243.29z"/>
		<path d="M80.83,240.41c6.45-0.3,12.43-0.53,18.39-0.92c0.87-0.06,2.14-0.71,2.46-1.43c4.25-9.52,8.39-19.1,12.5-28.68
			c0.83-1.94,2.17-2.61,3.9-1.33c4.56,3.38,5.83,4.14,3.51,9.31c-3.04,6.79-6.29,13.48-9.46,20.22c-0.34,0.73-0.68,1.47-1.13,2.45
			c2.93,0.56,5.65,1.08,8.37,1.6c0.1,0.27,0.19,0.53,0.29,0.8c-1.52,0.61-3.15,1.92-4.54,1.71c-5.26-0.81-7.78,1.61-8.83,6.36
			c-0.08,0.39-0.36,0.73-0.56,1.14c-1.64-0.01-1.76-0.76-1.29-2.07c0.94-2.62,1.76-5.28,2.45-7.99c-2.04,3.2-4.89,6.61-3.59,10.39
			c1.93,5.58-1.71,9.54-2.87,14.19c-0.92,3.68-2.4,7.23-3.49,10.87c-0.89,2.97-1.6,5.97-5.59,6.42c-4.02-2.62-4.22-2.68-2.67-7.66
			c3.04-9.78,6.33-19.48,9.51-29.21c0.15-0.45,0.24-0.91,0.43-1.64c-1.26,0-2.31-0.09-3.34,0.02c-5.28,0.56-10.55,1.25-15.83,1.73
			c-1.52,0.14-2.17,0.84-2.64,2.13c-2.51,6.91-5.14,13.79-7.58,20.73c-1.29,3.67-3.39,4.72-6.83,3.24
			c-1.53-0.66-2.06-1.65-1.66-3.12c0.78-2.88,1.6-5.74,2.52-8.58c1.12-3.44,2.37-6.84,3.56-10.25c-0.18-0.21-0.36-0.42-0.53-0.63
			c-2.09,0.83-4.2,1.6-6.26,2.5c-3.79,1.65-4.76,1.19-5.82-2.93c3.9-3.45,8.62-5.2,13.58-6.36c1.5-0.35,2.34-1.04,3.02-2.51
			c4.38-9.47,8.91-18.88,13.38-28.31c0.28-0.58,0.46-1.21,0.74-1.95c-2.87-0.14-5.44-0.31-7.64,1.86c-0.77,0.76-2.71,0.47-3.32,1.27
			c-3.31,4.27-7.93,7.54-9.74,12.97c-1.2,3.59-1.15,6.93,1.01,10.16c-1.87,1.27-3.26,1.1-4.46-0.75c-1.85-2.85-2.61-5.88-1.72-9.21
			c2.92-11,15.34-19.08,24.83-18.9c2.47,0.05,5.05,0.89,7.33,1.92c2.72,1.23,3.28,2.69,2.11,5.49c-1.78,4.27-3.89,8.4-5.97,12.53
			C85.26,232.09,83.06,236.15,80.83,240.41z M63.76,225.26c-0.4-0.13-0.79-0.26-1.19-0.39c-0.52,1.59-1.04,3.19-1.55,4.78
			c0.32,0.11,0.64,0.21,0.96,0.32C62.57,228.4,63.16,226.83,63.76,225.26z"/>
		<path d="M314.81,283.26c0.67,1.47,1.34,2.93,2.12,4.63c-3.14-2.46-15.92-29.28-17.29-36.53c-2.66,4.04-5.03,7.49-7.23,11.04
			c-1.91,3.08-3.41,6.44-5.55,9.35c-0.74,1-2.91,1.54-4.3,1.35c-2.13-0.29-3.79-1.39-2.8-4.29c2.05-6.01,3.37-12.32,5.85-18.13
			c5.36-12.54,11.27-24.86,16.97-37.26c0.3-0.66,0.77-1.25,1.17-1.88c-3.12-1.28-9.92,2.52-15.53,8.2
			c-4.12,4.17-7.22,12.74-4.27,17.08c-1.83,1.49-3.24,1.01-4.39-0.87c-1.71-2.79-2.43-5.71-1.62-9c2.7-10.99,15.85-19.5,25.24-18.94
			c2.31,0.14,4.63,1.02,6.85,1.82c2.52,0.9,3,2.97,2.26,5.29c-0.6,1.88-1.31,3.76-2.21,5.51c-3.27,6.33-6.64,12.6-9.96,18.9
			c-0.45,0.85-0.77,1.77-0.84,2.84c3.82-4.08,7.64-8.17,11.47-12.24c1.82-1.93,3.52-4.04,5.58-5.69c3.99-3.19,7.72-6.64,11.44-10.12
			c0.52-0.48,1-1.95,2.06-0.49c0.37-0.3,0.9-0.53,1.08-0.91c1.36-2.94,3.5-4.75,7.6-5.95c-0.97,1.2-1.58,1.96-2.2,2.72
			c0.05,0.09,0.1,0.18,0.15,0.28c1.7-1.04,3.39-2.08,5.09-3.12c0.12,0.17,0.24,0.34,0.36,0.51c-13.62,11.47-26.16,23.99-36.63,37.35
			c1.75,3.48,3.41,6.41,4.72,9.48c5.51,12.95,10.81,25.99,16.41,38.9c2.12,4.88,4.92,9.42,9.84,12.16c-1.25,1.48-3.53,1.9-5.42,0.17
			c-3.26-2.98-6.39-6.23-8.99-9.78c-2.06-2.82-3.23-6.28-4.85-9.43c-0.56-1.08-1.29-2.08-1.94-3.12c-0.31-0.93-0.59-1.88-0.93-2.8
			c-2.34-6.17-4.66-12.34-7.06-18.48c-0.52-1.32-1.35-2.51-2.04-3.76c-0.21,0.11-0.43,0.21-0.64,0.32
			c1.57,4.33,2.98,8.72,4.76,12.96C310.79,275.39,312.88,279.29,314.81,283.26z M280.14,229.77c2.86-3.81,2.87-4.51,0.85-5.53
			C280.72,226.05,280.43,227.91,280.14,229.77z"/>
		<path class="st0" d="M463.56,241.8c-3.2,5.88-2.95,11.57,0.85,17.03c0.39,0.57,0.55,1.84,0.19,2.29
			c-1.71,2.15-3.37,4.52-5.57,6.07c-2.23,1.57-4.01,0.59-4.52-2.09c-0.33-1.75-0.43-3.67-0.07-5.4c1.13-5.48,3.38-10.54,6.55-15.16
			C461.69,243.52,462.7,242.71,463.56,241.8z"/>
		<path class="st0" d="M485.94,264.36c1.64,3.88,1.9,7.54-0.11,11.14c-2.49,4.46-7.81,4.95-10.99,1.09c-1.24-1.5-1.34-2.96-0.13-4.5
			C477.63,268.38,481.61,266.25,485.94,264.36z"/>
		<path class="st0" d="M364.62,264.29c1.54,3.73,1.85,7.25,0.14,10.76c-2.24,4.62-7.44,5.52-10.87,1.98
			c-1.66-1.72-1.85-3.41-0.3-5.26C356.48,268.3,360.33,266.25,364.62,264.29z"/>
		<path class="st0" d="M504.89,253.31c2.42-3.59,4.71-7.27,7.34-10.7c0.71-0.93,2.43-1.1,3.94-1.73
			c-0.12,5.68-4.69,11.02-10.47,12.94C505.43,253.66,505.16,253.49,504.89,253.31z"/>
		<path class="st0" d="M466.77,256.7c-3.79-4.22-3.14-11.63,1-13.27C469.16,246.69,468.75,252.75,466.77,256.7z"/>
		<path class="st0" d="M360.9,257.77c0.97,1.38,1.66,2.37,2.49,3.55c-1.84,0.86-3.52,1.64-5.81,2.72
			C358.82,261.69,359.77,259.9,360.9,257.77z"/>
		<path class="st0" d="M224.1,242.27c-3.17,5.79-2.12,11.08,1.05,16.15c0.78,1.25,1.14,2.16,0.15,3.25
			c-1.75,1.92-3.3,4.17-5.41,5.56c-2.22,1.47-3.74,0.6-4.4-1.99c-0.36-1.41-0.6-3-0.34-4.4c1.17-6.35,3.68-12.16,7.58-17.34
			C223.09,243.02,223.64,242.68,224.1,242.27z"/>
		<path class="st0" d="M136.12,242.2c-3,6.01-2,11.37,1.37,16.61c0.32,0.5,0.74,1.34,0.53,1.71c-1.49,2.76-2.87,5.67-6.1,6.88
			c-2.4,0.9-3.71,0.36-4.29-2.09c-0.37-1.57-0.59-3.33-0.28-4.89c1.15-5.91,3.52-11.35,7.01-16.28
			C134.86,243.44,135.52,242.85,136.12,242.2z"/>
		<path class="st0" d="M158.91,263.76c1.69,4.69,2.07,8.56-0.37,12.31c-1.75,2.7-4.75,3.77-7.55,2.77c-4.33-1.54-5.38-5.1-2-8.09
			C151.9,268.17,155.37,266.22,158.91,263.76z"/>
		<path class="st0" d="M140.85,243.38c1.45,2.88,0.97,9.47-0.97,13.29C136.11,252.96,136.68,245.1,140.85,243.38z"/>
		<path class="st0" d="M229.01,243.29c1.05,4.63,0.48,9.03-1.08,13.54C223.95,252.83,224.57,245.01,229.01,243.29z"/>
		<path class="st0" d="M63.76,225.26c-0.59,1.57-1.19,3.14-1.78,4.71c-0.32-0.11-0.64-0.21-0.96-0.32c0.52-1.59,1.04-3.19,1.55-4.78
			C62.97,225.01,63.36,225.14,63.76,225.26z"/>
		<path class="st0" d="M314.81,283.26c-1.93-3.97-4.02-7.87-5.73-11.94c-1.78-4.24-3.19-8.63-4.76-12.96
			c0.21-0.11,0.43-0.21,0.64-0.32c0.69,1.25,1.53,2.44,2.04,3.76c2.41,6.14,4.73,12.32,7.06,18.48c0.35,0.92,0.62,1.86,0.93,2.8
			C314.94,283.15,314.87,283.2,314.81,283.26z"/>
		<path class="st0" d="M280.14,229.77c0.29-1.86,0.57-3.72,0.85-5.53C283.02,225.25,283.01,225.95,280.14,229.77z"/>
	</g>
</g>
</svg>
